#N canvas 0 53 1440 792 10;
#X obj 117 121 cepstrum~ 1024;
#X obj 55 70 bng 30 250 50 0 empty empty Analyze 0 -10 0 10 -258113
-1 -1;
#X obj 117 332 timbreID;
#X obj 117 21 adc~;
#X obj 158 64 tgl 15 0 empty empty Continuous-analysis 17 7 0 10 -232576
-1 -1 1 1;
#X msg 665 518 cluster_list \$1;
#X msg 437 541 clear;
#X obj 364 593 s \$0-tID;
#X obj 34 303 r \$0-tID;
#X obj 626 593 s \$0-tID;
#X obj 665 495 hradio 15 1 0 4 empty empty empty 0 -8 0 10 -262144
-1 -1 0;
#X msg 685 554 uncluster;
#X msg 407 521 forget;
#X obj 147 451 select 0 1 2;
#X obj 170 358 print cluster;
#N canvas 234 150 449 341 vE 0;
#X obj 68 12 inlet;
#X obj 68 73 % 15;
#X obj 68 94 route 0 1 2 3 4 5 6 7 8 9 10 11 12 13 14;
#X obj 38 285 s vE0;
#X obj 58 265 s vE1;
#X obj 78 245 s vE2;
#X obj 98 225 s vE3;
#X obj 118 205 s vE4;
#X obj 138 185 s vE5;
#X obj 158 165 s vE6;
#X obj 178 145 s vE7;
#X obj 328 285 s vE8;
#X obj 338 265 s vE9;
#X obj 348 245 s vE10;
#X obj 358 225 s vE11;
#X obj 368 205 s vE12;
#X obj 378 185 s vE13;
#X obj 388 165 s vE14;
#X obj 68 33 f 0;
#X obj 98 33 + 1;
#X connect 0 0 18 0;
#X connect 1 0 2 0;
#X connect 2 0 3 0;
#X connect 2 1 4 0;
#X connect 2 2 5 0;
#X connect 2 3 6 0;
#X connect 2 4 7 0;
#X connect 2 5 8 0;
#X connect 2 6 9 0;
#X connect 2 7 10 0;
#X connect 2 8 11 0;
#X connect 2 9 12 0;
#X connect 2 10 13 0;
#X connect 2 11 14 0;
#X connect 2 12 15 0;
#X connect 2 13 16 0;
#X connect 2 14 17 0;
#X connect 18 0 19 0;
#X connect 18 0 1 0;
#X connect 19 0 18 1;
#X restore 147 512 pd vE;
#N canvas 234 150 451 341 vA 0;
#X obj 68 12 inlet;
#X obj 68 73 % 15;
#X obj 68 94 route 0 1 2 3 4 5 6 7 8 9 10 11 12 13 14;
#X obj 38 285 s vA0;
#X obj 58 265 s vA1;
#X obj 78 245 s vA2;
#X obj 98 225 s vA3;
#X obj 118 205 s vA4;
#X obj 138 185 s vA5;
#X obj 158 165 s vA6;
#X obj 178 145 s vA7;
#X obj 328 285 s vA8;
#X obj 338 265 s vA9;
#X obj 348 245 s vA10;
#X obj 358 225 s vA11;
#X obj 368 205 s vA12;
#X obj 378 185 s vA13;
#X obj 388 165 s vA14;
#X obj 68 33 f 0;
#X obj 98 33 + 1;
#X connect 0 0 18 0;
#X connect 1 0 2 0;
#X connect 2 0 3 0;
#X connect 2 1 4 0;
#X connect 2 2 5 0;
#X connect 2 3 6 0;
#X connect 2 4 7 0;
#X connect 2 5 8 0;
#X connect 2 6 9 0;
#X connect 2 7 10 0;
#X connect 2 8 11 0;
#X connect 2 9 12 0;
#X connect 2 10 13 0;
#X connect 2 11 14 0;
#X connect 2 12 15 0;
#X connect 2 13 16 0;
#X connect 2 14 17 0;
#X connect 18 0 19 0;
#X connect 18 0 1 0;
#X connect 19 0 18 1;
#X restore 174 492 pd vA;
#N canvas 239 178 469 335 vO 0;
#X obj 68 12 inlet;
#X obj 68 73 % 15;
#X obj 68 94 route 0 1 2 3 4 5 6 7 8 9 10 11 12 13 14;
#X obj 38 285 s vO0;
#X obj 58 265 s vO1;
#X obj 78 245 s vO2;
#X obj 98 225 s vO3;
#X obj 118 205 s vO4;
#X obj 138 185 s vO5;
#X obj 158 165 s vO6;
#X obj 178 145 s vO7;
#X obj 328 285 s vO8;
#X obj 338 265 s vO9;
#X obj 348 245 s vO10;
#X obj 358 225 s vO11;
#X obj 368 205 s vO12;
#X obj 378 185 s vO13;
#X obj 388 165 s vO14;
#X obj 68 33 f 0;
#X obj 98 33 + 1;
#X connect 0 0 18 0;
#X connect 1 0 2 0;
#X connect 2 0 3 0;
#X connect 2 1 4 0;
#X connect 2 2 5 0;
#X connect 2 3 6 0;
#X connect 2 4 7 0;
#X connect 2 5 8 0;
#X connect 2 6 9 0;
#X connect 2 7 10 0;
#X connect 2 8 11 0;
#X connect 2 9 12 0;
#X connect 2 10 13 0;
#X connect 2 11 14 0;
#X connect 2 12 15 0;
#X connect 2 13 16 0;
#X connect 2 14 17 0;
#X connect 18 0 19 0;
#X connect 18 0 1 0;
#X connect 19 0 18 1;
#X restore 201 472 pd vO;
#X obj 158 84 metro 11.61;
#X obj 117 422 route 0 1;
#X obj 117 402 list prepend 0;
#X obj 141 172 hradio 30 1 0 2 tr-id empty Train-Identify 0 -8 0 18
-261234 -1 -1 1;
#X obj 117 303 route 0 1;
#X obj 117 283 list prepend 0;
#X obj 212 382 r tr-id;
#X obj 212 263 r tr-id;
#X obj 117 232 list split 40;
#N canvas 516 619 444 187 init 0;
#X obj 139 21 r tr-id;
#X obj 139 42 route 0 1;
#X obj 169 93 print -n;
#X msg 169 73 Identification mode active;
#X obj 139 133 print -n;
#X msg 139 113 Training mode active;
#X obj 31 23 loadbang;
#X msg 31 112 \; pd dsp 1 \;;
#X connect 0 0 1 0;
#X connect 1 0 5 0;
#X connect 1 1 3 0;
#X connect 3 0 2 0;
#X connect 5 0 4 0;
#X connect 6 0 7 0;
#X restore 425 593 pd init;
#X obj 117 258 list split 1;
#X obj 615 439 cnv 15 100 30 empty empty empty 20 12 0 14 -228856 -66577
0;
#X msg 626 446 cluster 4;
#X floatatom 261 475 5 0 0 0 - - -;
#X obj 265 726 hsl 128 15 0 1000 0 0 empty empty empty -2 -8 0 10 -262144
-1 -1 2159 1;
#X obj 262 704 max 0;
#X obj 66 635 tof/increment;
#X obj 66 584 t b;
#X obj 96 584 t b;
#X obj 141 615 bng 15 250 50 0 empty empty empty 17 7 0 10 -262144
-1 -1;
#X obj 262 679 min 1000;
#X obj 185 700 t b;
#X msg 185 722 set 1000;
#X obj 128 678 moses 1001;
#X obj 66 676 moses -1;
#X obj 66 700 t b;
#X msg 66 725 set 0;
#X text 259 742 voice;
#X text 363 741 music;
#X obj 184 530 fiddle~;
#X obj 187 624 t b;
#X obj 253 604 t b;
#X obj 210 553 moses 10;
#X obj 187 603 moses 45;
#X obj 208 581 moses 58;
#X msg 66 606 -30;
#X msg 96 606 5;
#X text 348 716 |;
#X msg 364 446 write database/mv-db.timid;
#X msg 383 484 read database/mv-db.timid;
#X connect 0 0 26 0;
#X connect 1 0 0 0;
#X connect 2 0 20 0;
#X connect 2 3 14 0;
#X connect 3 0 0 0;
#X connect 3 0 47 0;
#X connect 4 0 18 0;
#X connect 5 0 9 0;
#X connect 6 0 7 0;
#X connect 8 0 2 0;
#X connect 10 0 5 0;
#X connect 11 0 9 0;
#X connect 12 0 7 0;
#X connect 13 0 15 0;
#X connect 13 0 36 0;
#X connect 13 1 16 0;
#X connect 13 1 36 0;
#X connect 13 2 17 0;
#X connect 13 2 35 0;
#X connect 18 0 0 0;
#X connect 19 1 13 0;
#X connect 20 0 19 0;
#X connect 22 0 2 0;
#X connect 22 1 2 1;
#X connect 23 0 22 0;
#X connect 24 0 20 1;
#X connect 25 0 23 1;
#X connect 26 0 28 0;
#X connect 28 1 23 0;
#X connect 30 0 9 0;
#X connect 33 0 32 0;
#X connect 34 0 38 0;
#X connect 34 0 41 0;
#X connect 34 0 42 0;
#X connect 35 0 53 0;
#X connect 36 0 54 0;
#X connect 37 0 34 1;
#X connect 38 0 33 0;
#X connect 39 0 40 0;
#X connect 40 0 34 0;
#X connect 41 1 39 0;
#X connect 42 0 43 0;
#X connect 43 0 44 0;
#X connect 44 0 34 0;
#X connect 47 2 50 0;
#X connect 48 0 54 0;
#X connect 49 0 54 0;
#X connect 50 0 52 0;
#X connect 50 0 51 0;
#X connect 51 0 48 0;
#X connect 52 1 49 0;
#X connect 53 0 34 0;
#X connect 54 0 34 0;
#X connect 56 0 7 0;
#X connect 57 0 7 0;
