#N canvas 771 205 531 377 10;
#X obj 38 343 dac~ 1;
#X obj 71 11 adc~ 1;
#X obj 72 294 *~;
#X obj 72 316 clip~ -1 1;
#X text 141 314 just to be safe;
#X obj 71 224 *~ 1;
#X text 166 252 limit;
#X text 108 225 volume;
#X obj 92 182 r volume;
#X obj 92 203 / 100;
#N canvas 42 53 811 746 speechdetect 0;
#X obj 145 15 inlet~;
#X obj 477 720 outlet;
#X obj 146 110 cepstrum~ 1024;
#X obj 146 321 timbreID;
#X obj 187 53 tgl 15 0 empty empty Continuous-analysis 17 7 0 10 -232576
-1 -1 1 1;
#X msg 623 362 cluster_list \$1;
#X msg 395 385 clear;
#X obj 322 437 s \$0-tID;
#X obj 63 292 r \$0-tID;
#X obj 584 437 s \$0-tID;
#X obj 623 339 hradio 15 1 0 4 empty empty empty 0 -8 0 10 -262144
-1 -1 0;
#X msg 643 398 uncluster;
#X msg 365 365 forget;
#X obj 176 440 select 0 1 2;
#X obj 179 349 print cluster;
#X obj 187 73 metro 11.61;
#X obj 146 411 route 0 1;
#X obj 146 391 list prepend 0;
#X obj 187 173 hradio 30 1 0 2 tr-id empty Train-Identify 0 -8 0 18
-261234 -1 -1 0;
#X obj 146 292 route 0 1;
#X obj 146 272 list prepend 0;
#X obj 241 371 r tr-id;
#X obj 241 252 r tr-id;
#X obj 146 221 list split 40;
#N canvas 521 647 444 187 init 0;
#X obj 139 21 r tr-id;
#X obj 139 42 route 0 1;
#X obj 169 93 print -n;
#X msg 169 73 Identification mode active;
#X obj 139 157 print -n;
#X msg 139 113 Training mode active;
#X connect 0 0 1 0;
#X connect 1 0 5 0;
#X connect 1 1 3 0;
#X connect 3 0 2 0;
#X restore 383 437 pd init;
#X obj 146 247 list split 1;
#X obj 573 283 cnv 15 100 30 empty empty empty 20 12 0 14 -228856 -66577
0;
#X msg 584 290 cluster 4;
#X obj 325 668 hsl 128 15 0 1000 0 0 empty empty empty -2 -8 0 10 -262144
-1 -1 0 1;
#X obj 322 646 max 0;
#X obj 126 526 t b;
#X obj 156 526 t b;
#X obj 201 557 bng 15 250 50 0 empty empty empty 17 7 0 10 -262144
-1 -1;
#X obj 322 621 min 1000;
#X obj 245 642 t b;
#X msg 245 664 set 1000;
#X obj 188 620 moses 1001;
#X obj 126 618 moses -1;
#X obj 126 642 t b;
#X msg 126 667 set 0;
#X text 319 684 voice;
#X text 423 683 music;
#X obj 244 472 fiddle~;
#X obj 247 566 t b;
#X obj 313 546 t b;
#X obj 270 495 moses 10;
#X obj 247 545 moses 45;
#X obj 268 523 moses 58;
#X msg 126 548 -30;
#X msg 156 548 5;
#X text 408 658 |;
#X msg 346 322 read vowel-db.timid;
#X msg 322 290 write vowel-db.timid;
#X floatatom 320 579 5 0 0 0 - - -;
#X obj 457 184 loadbang;
#X obj 461 240 delay 500;
#X obj 475 269 t b;
#X msg 522 215 1;
#X obj 523 264 delay 500;
#X obj 527 299 t b;
#X msg 512 332 1;
#X obj 478 621 moses 700;
#X obj 531 643 t b;
#X obj 478 642 t b;
#X obj 478 696 change;
#X msg 478 666 0;
#X msg 531 668 1;
#X obj 522 240 s tr-id;
#X obj 84 59 bng 30 250 50 0 empty empty Analyze 0 -10 0 10 -258113
-1 -1;
#X obj 126 577 increment;
#X text 633 32 level threshold...;
#X text 632 19 TODO::::::::::::;
#X connect 0 0 2 0;
#X connect 0 0 42 0;
#X connect 2 0 23 0;
#X connect 3 0 17 0;
#X connect 4 0 15 0;
#X connect 5 0 9 0;
#X connect 6 0 7 0;
#X connect 8 0 3 0;
#X connect 10 0 5 0;
#X connect 11 0 9 0;
#X connect 12 0 7 0;
#X connect 13 0 31 0;
#X connect 13 1 31 0;
#X connect 13 2 30 0;
#X connect 15 0 2 0;
#X connect 16 1 13 0;
#X connect 17 0 16 0;
#X connect 19 0 3 0;
#X connect 19 1 3 1;
#X connect 20 0 19 0;
#X connect 21 0 17 1;
#X connect 22 0 20 1;
#X connect 23 0 25 0;
#X connect 25 1 20 0;
#X connect 27 0 9 0;
#X connect 28 0 61 0;
#X connect 28 0 1 0;
#X connect 29 0 28 0;
#X connect 30 0 48 0;
#X connect 31 0 49 0;
#X connect 32 0 69 1;
#X connect 33 0 29 0;
#X connect 34 0 35 0;
#X connect 35 0 69 0;
#X connect 36 1 34 0;
#X connect 37 0 38 0;
#X connect 38 0 39 0;
#X connect 39 0 69 0;
#X connect 42 2 45 0;
#X connect 43 0 49 0;
#X connect 44 0 49 0;
#X connect 45 0 47 0;
#X connect 45 0 46 0;
#X connect 46 0 43 0;
#X connect 47 1 44 0;
#X connect 48 0 69 0;
#X connect 49 0 69 0;
#X connect 51 0 7 0;
#X connect 52 0 7 0;
#X connect 54 0 51 0;
#X connect 54 0 55 0;
#X connect 54 0 57 0;
#X connect 55 0 56 0;
#X connect 56 0 27 0;
#X connect 56 0 58 0;
#X connect 57 0 67 0;
#X connect 58 0 59 0;
#X connect 59 0 60 0;
#X connect 60 0 4 0;
#X connect 61 0 63 0;
#X connect 61 1 62 0;
#X connect 62 0 66 0;
#X connect 63 0 65 0;
#X connect 65 0 64 0;
#X connect 66 0 64 0;
#X connect 68 0 2 0;
#X connect 69 0 33 0;
#X connect 69 0 36 0;
#X connect 69 0 37 0;
#X connect 69 0 53 0;
#X restore 236 51 pd speechdetect;
#X obj 87 252 limiter~ 10;
#X obj 72 274 z~ 90;
#N canvas 498 430 450 300 removenoise 0;
#X obj 108 52 inlet~;
#X obj 109 177 outlet~;
#X obj 109 83 demultiplex~ . .;
#N canvas 15 109 450 300 drown 0;
#X obj 355 44 inlet;
#X obj 355 69 switch~;
#X obj 154 183 drown~;
#X obj 153 43 inlet~;
#X obj 154 208 outlet~;
#X connect 0 0 1 0;
#X connect 2 0 4 0;
#X connect 3 0 2 0;
#X restore 109 109 pd drown;
#X connect 0 0 2 0;
#X connect 2 0 3 0;
#X connect 2 1 1 0;
#X connect 3 0 1 0;
#X restore 70 80 pd removenoise;
#N canvas 25 165 450 300 hlpass 0;
#X obj 118 56 inlet~;
#X obj 119 187 outlet~;
#N canvas 187 496 450 300 hl 0;
#X obj 306 43 inlet;
#X obj 306 66 switch~;
#X obj 161 72 hip~ 300;
#X obj 161 94 lop~ 4000;
#X obj 162 44 inlet~;
#X obj 161 127 outlet~;
#X obj 206 44 r hlhip;
#X obj 219 72 r hllop;
#X connect 0 0 1 0;
#X connect 2 0 3 0;
#X connect 3 0 5 0;
#X connect 4 0 2 0;
#X connect 6 0 2 1;
#X connect 7 0 3 1;
#X restore 119 119 pd hl;
#N canvas 423 540 450 300 hlbess10 0;
#X obj 68 122 lp10_bess~ 4000 200;
#X obj 68 100 hp10_bess~ 300 200;
#X obj 68 76 inlet~;
#X obj 68 145 outlet~;
#X obj 332 38 inlet;
#X obj 332 60 switch~;
#X connect 0 0 3 0;
#X connect 1 0 0 0;
#X connect 2 0 1 0;
#X connect 4 0 5 0;
#X restore 161 119 pd hlbess10;
#X obj 119 93 demultiplex~ . . .;
#X connect 0 0 4 0;
#X connect 2 0 1 0;
#X connect 3 0 1 0;
#X connect 4 0 2 0;
#X connect 4 1 3 0;
#X connect 4 2 1 0;
#X restore 71 50 pd hlpass;
#X obj 253 317 unpack 0 0 0;
#X floatatom 253 340 5 0 0 0 - - -;
#X floatatom 287 340 5 0 0 0 - - -;
#X obj 253 296 prvu~ 300 1000 300 -0.01;
#X text 407 294 monitor level;
#X text 133 49 low/high pass;
#X floatatom 236 74 5 0 0 0 - - -;
#X text 276 74 0 = speech \, 1 = music;
#X connect 1 0 14 0;
#X connect 1 0 10 0;
#X connect 1 0 0 0;
#X connect 2 0 3 0;
#X connect 3 0 0 0;
#X connect 5 0 11 0;
#X connect 5 0 12 0;
#X connect 8 0 9 0;
#X connect 9 0 5 1;
#X connect 10 0 21 0;
#X connect 11 0 2 1;
#X connect 12 0 2 0;
#X connect 13 0 5 0;
#X connect 14 0 13 0;
#X connect 15 0 16 0;
#X connect 15 1 17 0;
#X connect 18 0 15 0;
