#N canvas 764 304 526 536 10;
#X obj 98 372 dac~ 1;
#X obj 96 36 adc~ 1;
#X obj 98 299 *~;
#X text 207 320 just to be safe;
#X obj 113 257 limiter~ 10;
#X obj 98 279 z~ 90;
#X text 145 344 remove DC;
#X obj 97 346 hip~ 5;
#X text 201 257 limit;
#X text 148 61 boost;
#X obj 151 14 r volume;
#X obj 98 321 clip~ -0.99 0.99;
#X text 202 92 from kiku choice gui;
#X text 210 13 from kiku slider gui;
#X obj 144 91 r filter;
#X obj 265 130 r hp;
#X obj 298 130 r lp;
#X obj 151 36 / 100;
#X obj 97 62 *~ 1;
#X obj 231 500 s prvu;
#X obj 231 395 unpack 0 0 0;
#X obj 231 371 prvu~ 20 1000 300 -0.01;
#X obj 231 416 * -1;
#X obj 231 457 * -1;
#X obj 231 437 - 100;
#X text 279 500 send decibel to kiku;
#X text 258 477 compensation for the limiter and clip;
#X obj 231 478 + 3;
#X obj 98 123 demultiplex~ . . .;
#X obj 151 180 filter~ hp1 300 1 0 200;
#X obj 152 206 filter~ lp1 10000 1 0 200;
#X obj 334 181 biquadseries~ 4;
#X msg 332 156 butterHP \$1;
#X msg 409 156 butterLP \$1;
#X connect 1 0 18 0;
#X connect 2 0 11 0;
#X connect 4 0 2 1;
#X connect 5 0 2 0;
#X connect 7 0 0 0;
#X connect 7 0 21 0;
#X connect 10 0 17 0;
#X connect 11 0 7 0;
#X connect 14 0 28 0;
#X connect 15 0 29 1;
#X connect 15 0 32 0;
#X connect 16 0 30 1;
#X connect 16 0 33 0;
#X connect 17 0 18 1;
#X connect 18 0 28 0;
#X connect 20 0 22 0;
#X connect 21 0 20 0;
#X connect 22 0 24 0;
#X connect 23 0 27 0;
#X connect 24 0 23 0;
#X connect 27 0 19 0;
#X connect 28 0 5 0;
#X connect 28 0 4 0;
#X connect 28 1 29 0;
#X connect 28 2 31 0;
#X connect 29 0 30 0;
#X connect 30 0 4 0;
#X connect 30 0 5 0;
#X connect 31 0 4 0;
#X connect 31 0 5 0;
#X connect 32 0 31 0;
#X connect 33 0 31 0;
